<svg width="216" height="77" viewBox="0 0 216 77" fill="none" xmlns="http://www.w3.org/2000/svg">
<path d="M18.4285 7.61789C20.0118 7.61789 21.2954 8.90147 21.2954 10.4848C21.2954 12.0682 20.0118 13.3518 18.4285 13.3518C16.8451 13.3518 15.5615 12.0682 15.5615 10.4848C15.5615 8.90147 16.8451 7.61789 18.4285 7.61789Z" fill="#F06373"/>
<path d="M22.8927 1.78814e-05C23.8653 1.78814e-05 24.6538 0.788502 24.6538 1.76115C24.6538 2.73379 23.8653 3.52228 22.8927 3.52228C21.9201 3.52228 21.1316 2.73379 21.1316 1.76115C21.1316 0.788502 21.9201 1.78814e-05 22.8927 1.78814e-05Z" fill="#F06373"/>
<path d="M24.2852 5.03763C24.9638 5.03763 25.5139 5.58774 25.5139 6.26633C25.5139 6.94492 24.9638 7.49503 24.2852 7.49503C23.6067 7.49503 23.0565 6.94492 23.0565 6.26633C23.0565 5.58774 23.6067 5.03763 24.2852 5.03763Z" fill="#F06373"/>
<path d="M7.45607 48.3582L1.55962 59.5753C0.236021 62.0955 2.06308 65.1191 4.90897 65.1191H18.269H31.6297C34.4756 65.1191 36.3026 62.0955 34.9783 59.5753L28.9355 48.079L7.45607 48.3582" fill="#E94959"/>
<path d="M34.9783 59.5753L35.9703 59.0539L24.3574 36.9605V17.2193C24.3566 15.8561 23.2526 14.7514 21.8887 14.7514H18.269H14.6492C13.286 14.7514 12.1813 15.8554 12.1806 17.2193V36.9605L0.567676 59.0548C0.181501 59.788 -0.000744667 60.5723 2.28655e-06 61.333C0.00074924 62.625 0.513889 63.8426 1.3826 64.7465C2.24831 65.651 3.49873 66.2419 4.90898 66.2396H18.269H31.6297C33.04 66.2419 34.2896 65.651 35.1553 64.7465C36.0241 63.8426 36.5372 62.625 36.5387 61.333C36.5387 60.5723 36.3564 59.788 35.9703 59.0548L34.9783 59.5753L33.9871 60.0968C34.203 60.5105 34.2971 60.9251 34.2978 61.333C34.2986 62.0222 34.017 62.6991 33.5404 63.1928C33.0616 63.6856 32.4178 63.9964 31.6297 63.9987H18.269H4.90898C4.12019 63.9964 3.47631 63.6856 2.99752 63.1928C2.52171 62.6991 2.23937 62.0231 2.24086 61.333C2.24161 60.9251 2.33497 60.5105 2.55159 60.0968L14.4214 37.5134V17.2193C14.4222 17.0938 14.5238 16.9923 14.6492 16.9923H18.269H21.8887C22.0142 16.9923 22.1158 17.0938 22.1165 17.2193V37.5134L33.9871 60.0968L34.9783 59.5753" fill="#2B333B"/>
<path d="M10.9414 57.2329C9.8441 57.2329 8.95447 56.3433 8.95447 55.2459C8.95447 54.148 9.8441 53.2583 10.9414 53.2583C12.0386 53.2583 12.9283 54.148 12.9283 55.2459C12.9283 56.3433 12.0386 57.2329 10.9414 57.2329Z" fill="#F06373"/>
<path d="M16.6959 62.6145C15.2102 62.6145 14.0054 61.4106 14.0054 59.9234C14.0054 58.4377 15.2102 57.2329 16.6959 57.2329C18.1823 57.2329 19.3872 58.4377 19.3872 59.9234C19.3872 61.4106 18.1823 62.6145 16.6959 62.6145" fill="#F06373"/>
<path d="M16.2821 54.0657C15.8362 54.0657 15.4746 53.7042 15.4746 53.2584C15.4746 52.8131 15.8362 52.451 16.2821 52.451C16.728 52.451 17.0895 52.8131 17.0895 53.2584C17.0895 53.7042 16.728 54.0657 16.2821 54.0657Z" fill="#F06373"/>
<path d="M10.1548 62.0762C9.46912 62.0762 8.91263 61.5203 8.91263 60.8347C8.91263 60.1481 9.46912 59.5926 10.1548 59.5926C10.8405 59.5926 11.397 60.1481 11.397 60.8347C11.397 61.5203 10.8405 62.0762 10.1548 62.0762Z" fill="#F06373"/>
<path d="M13.301 21.3425H18.269C18.8882 21.3425 19.3894 20.8406 19.3894 20.2221C19.3894 19.6029 18.8882 19.1017 18.269 19.1017H13.301C12.6825 19.1017 12.1805 19.6029 12.1805 20.2221C12.1805 20.8406 12.6825 21.3425 13.301 21.3425Z" fill="#2B333B"/>
<path d="M50.92 37.6C43.72 37.6 38.32 42.8 38.32 52.08C38.32 61.56 43.4 66.68 51 66.68C54.84 66.68 57.84 64.96 59.68 63.12L56.76 59.36C55.12 60.6 53.52 61.6 51.32 61.6C47.64 61.6 45.2 58.76 45.2 52.08C45.2 45.28 47.68 42.44 51.24 42.44C53.12 42.44 54.68 43.16 56.24 44.36L59.36 40.64C57.04 38.68 54.52 37.6 50.92 37.6ZM69.1678 38.28H62.6078V66H69.1678V38.28ZM82.0466 38.28H74.3266V66H82.6466C89.7266 66 96.4466 63.16 96.4466 52C96.4466 40.56 89.4466 38.28 82.0466 38.28ZM82.9666 43.04C86.8066 43.04 89.6466 44.56 89.6466 52C89.6466 59.36 87.0066 61.24 83.0466 61.24H80.8866V43.04H82.9666ZM121.741 38.28H115.861V49.48C115.861 53.92 116.381 57.56 116.741 59.8L108.541 38.28H100.381V66H106.221V55.84C106.221 50.72 105.701 47.04 105.381 44.52L113.381 66H121.741V38.28ZM138.105 37.6C130.305 37.6 125.625 43.08 125.625 52.12C125.625 61.36 130.305 66.68 138.105 66.68C145.945 66.68 150.625 61.2 150.625 52.12C150.625 42.88 145.945 37.6 138.105 37.6ZM138.105 42.4C141.825 42.4 143.745 45.12 143.745 52.12C143.745 59.16 141.865 61.88 138.105 61.88C134.505 61.88 132.505 59.16 132.505 52.12C132.505 45.12 134.425 42.4 138.105 42.4ZM172.115 38.28H150.915V43.32H158.075V66H164.635V43.32H171.475L172.115 38.28ZM191.756 38.28H174.756V66H191.756V61.28H181.316V54.2H189.836V49.6H181.316V42.96H191.076L191.756 38.28ZM204.34 37.6C198.58 37.6 194.34 40.72 194.34 45.6C194.34 49.72 196.62 52.28 202.82 54.2C206.86 55.44 207.9 56.36 207.9 58.4C207.9 60.52 206.22 61.8 203.5 61.8C200.74 61.8 198.54 60.8 196.5 59.08L193.18 62.72C195.46 64.92 198.9 66.68 203.7 66.68C210.62 66.68 214.7 63.08 214.7 57.92C214.7 52.8 211.7 50.64 206.46 48.96C202.14 47.6 201.1 46.88 201.1 45.12C201.1 43.36 202.54 42.4 204.82 42.4C207.06 42.4 208.98 43.16 210.9 44.72L213.94 41.16C211.5 38.84 208.58 37.6 204.34 37.6Z" fill="black"/>
</svg>
